<svg width="100" height="100" viewBox="0 0 100 100" fill="none" xmlns="http://www.w3.org/2000/svg">
<path d="M13.4125 17.8375C13.122 17.547 12.8915 17.2021 12.7343 16.8224C12.577 16.4428 12.4961 16.0359 12.4961 15.625C12.4961 15.2141 12.577 14.8073 12.7343 14.4276C12.8915 14.048 13.122 13.7031 13.4125 13.4125C13.7031 13.122 14.048 12.8915 14.4276 12.7343C14.8073 12.577 15.2141 12.4961 15.625 12.4961C16.0359 12.4961 16.4428 12.577 16.8224 12.7343C17.2021 12.8915 17.547 13.122 17.8375 13.4125L50 45.5813L82.1625 13.4125C82.4531 13.122 82.798 12.8915 83.1776 12.7343C83.5573 12.577 83.9641 12.4961 84.375 12.4961C84.7859 12.4961 85.1928 12.577 85.5724 12.7343C85.9521 12.8915 86.297 13.122 86.5875 13.4125C86.8781 13.7031 87.1086 14.048 87.2658 14.4276C87.4231 14.8073 87.504 15.2141 87.504 15.625C87.504 16.0359 87.4231 16.4428 87.2658 16.8224C87.1086 17.2021 86.8781 17.547 86.5875 17.8375L54.4188 50L86.5875 82.1625C86.8781 82.4531 87.1086 82.798 87.2658 83.1776C87.4231 83.5573 87.504 83.9641 87.504 84.375C87.504 84.7859 87.4231 85.1928 87.2658 85.5724C87.1086 85.9521 86.8781 86.297 86.5875 86.5875C86.297 86.8781 85.9521 87.1086 85.5724 87.2658C85.1928 87.4231 84.7859 87.504 84.375 87.504C83.9641 87.504 83.5573 87.4231 83.1776 87.2658C82.798 87.1086 82.4531 86.8781 82.1625 86.5875L50 54.4188L17.8375 86.5875C17.547 86.8781 17.2021 87.1086 16.8224 87.2658C16.4428 87.4231 16.0359 87.504 15.625 87.504C15.2141 87.504 14.8073 87.4231 14.4276 87.2658C14.048 87.1086 13.7031 86.8781 13.4125 86.5875C13.122 86.297 12.8915 85.9521 12.7343 85.5724C12.577 85.1928 12.4961 84.7859 12.4961 84.375C12.4961 83.9641 12.577 83.5573 12.7343 83.1776C12.8915 82.798 13.122 82.4531 13.4125 82.1625L45.5813 50L13.4125 17.8375Z" fill="#F0F6FE"/>
</svg>
