<svg width="425" height="85" viewBox="0 0 425 85" fill="none" xmlns="http://www.w3.org/2000/svg">
<path d="M151.156 51V17.5455H165.597C168.08 17.5455 170.252 17.9974 172.114 18.9013C173.977 19.8052 175.425 21.1065 176.46 22.8054C177.494 24.5043 178.011 26.5407 178.011 28.9148C178.011 31.3106 177.478 33.3307 176.411 34.9751C175.354 36.6196 173.868 37.861 171.951 38.6996C170.045 39.5381 167.818 39.9574 165.27 39.9574H156.645V32.9006H163.44C164.508 32.9006 165.417 32.7699 166.168 32.5085C166.931 32.2363 167.513 31.8061 167.916 31.218C168.33 30.63 168.537 29.8622 168.537 28.9148C168.537 27.9564 168.33 27.1778 167.916 26.5788C167.513 25.969 166.931 25.5225 166.168 25.2393C165.417 24.9453 164.508 24.7983 163.44 24.7983H160.239V51H151.156ZM170.759 35.6449L179.122 51H169.256L161.088 35.6449H170.759ZM193.562 51.4574C190.84 51.4574 188.509 50.9183 186.571 49.8402C184.633 48.7512 183.146 47.2375 182.112 45.299C181.077 43.3497 180.56 41.09 180.56 38.5199C180.56 35.9498 181.077 33.6955 182.112 31.7571C183.146 29.8078 184.633 28.294 186.571 27.2159C188.509 26.1269 190.84 25.5824 193.562 25.5824C196.285 25.5824 198.616 26.1269 200.554 27.2159C202.492 28.294 203.979 29.8078 205.013 31.7571C206.048 33.6955 206.565 35.9498 206.565 38.5199C206.565 41.09 206.048 43.3497 205.013 45.299C203.979 47.2375 202.492 48.7512 200.554 49.8402C198.616 50.9183 196.285 51.4574 193.562 51.4574ZM193.628 44.7926C194.39 44.7926 195.049 44.5367 195.604 44.0249C196.16 43.513 196.59 42.7834 196.895 41.8359C197.2 40.8885 197.352 39.7614 197.352 38.4545C197.352 37.1368 197.2 36.0097 196.895 35.0732C196.59 34.1257 196.16 33.3961 195.604 32.8842C195.049 32.3724 194.39 32.1165 193.628 32.1165C192.822 32.1165 192.13 32.3724 191.553 32.8842C190.976 33.3961 190.535 34.1257 190.23 35.0732C189.925 36.0097 189.773 37.1368 189.773 38.4545C189.773 39.7614 189.925 40.8885 190.23 41.8359C190.535 42.7834 190.976 43.513 191.553 44.0249C192.13 44.5367 192.822 44.7926 193.628 44.7926ZM226.494 40.0227V25.9091H235.511V51H226.952V46.2301H226.69C226.146 47.831 225.193 49.0833 223.832 49.9872C222.47 50.8802 220.853 51.3267 218.98 51.3267C217.227 51.3267 215.691 50.9238 214.374 50.1179C213.067 49.312 212.049 48.2012 211.319 46.7855C210.6 45.3698 210.235 43.7472 210.224 41.9176V25.9091H219.241V40.0227C219.252 41.2642 219.568 42.2389 220.189 42.9467C220.821 43.6546 221.703 44.0085 222.835 44.0085C223.587 44.0085 224.235 43.8506 224.779 43.5348C225.335 43.2081 225.759 42.7507 226.053 42.1626C226.358 41.5637 226.505 40.8504 226.494 40.0227ZM249.115 36.8864V51H240.097V25.9091H248.657V30.679H248.919C249.463 29.089 250.421 27.8421 251.794 26.9382C253.177 26.0343 254.788 25.5824 256.629 25.5824C258.404 25.5824 259.945 25.9908 261.252 26.8075C262.569 27.6134 263.588 28.7242 264.306 30.1399C265.036 31.5556 265.395 33.1728 265.384 34.9915V51H256.367V36.8864C256.378 35.6449 256.062 34.6702 255.42 33.9624C254.788 33.2545 253.906 32.9006 252.774 32.9006C252.033 32.9006 251.385 33.0639 250.83 33.3906C250.285 33.7064 249.866 34.1638 249.572 34.7628C249.278 35.3509 249.125 36.0587 249.115 36.8864ZM278.918 51.3267C277.132 51.3267 275.488 50.8584 273.985 49.9219C272.493 48.9853 271.295 47.5642 270.391 45.6584C269.498 43.7526 269.052 41.3513 269.052 38.4545C269.052 35.4271 269.52 32.9659 270.456 31.071C271.404 29.1761 272.624 27.7876 274.116 26.9055C275.618 26.0234 277.198 25.5824 278.853 25.5824C280.094 25.5824 281.183 25.8002 282.12 26.2358C283.056 26.6605 283.84 27.2322 284.472 27.951C285.104 28.6589 285.583 29.4375 285.91 30.2869H286.04V17.5455H295.057V51H286.106V46.8835H285.91C285.561 47.733 285.06 48.4953 284.407 49.1705C283.764 49.8348 282.98 50.3629 282.055 50.755C281.14 51.1361 280.094 51.3267 278.918 51.3267ZM282.251 44.4006C283.078 44.4006 283.786 44.161 284.374 43.6818C284.973 43.1918 285.43 42.5057 285.746 41.6236C286.073 40.7306 286.236 39.6742 286.236 38.4545C286.236 37.2131 286.073 36.1513 285.746 35.2692C285.43 34.3762 284.973 33.6955 284.374 33.2273C283.786 32.7481 283.078 32.5085 282.251 32.5085C281.423 32.5085 280.715 32.7481 280.127 33.2273C279.55 33.6955 279.103 34.3762 278.787 35.2692C278.483 36.1513 278.33 37.2131 278.33 38.4545C278.33 39.696 278.483 40.7633 278.787 41.6562C279.103 42.5384 279.55 43.219 280.127 43.6982C280.715 44.1664 281.423 44.4006 282.251 44.4006ZM308.518 51V17.5455H322.958C325.441 17.5455 327.613 17.9974 329.476 18.9013C331.338 19.8052 332.786 21.1065 333.821 22.8054C334.855 24.5043 335.373 26.5407 335.373 28.9148C335.373 31.3106 334.839 33.3307 333.772 34.9751C332.715 36.6196 331.229 37.861 329.312 38.6996C327.407 39.5381 325.18 39.9574 322.631 39.9574H314.006V32.9006H320.802C321.869 32.9006 322.778 32.7699 323.53 32.5085C324.292 32.2363 324.875 31.8061 325.278 31.218C325.691 30.63 325.898 29.8622 325.898 28.9148C325.898 27.9564 325.691 27.1778 325.278 26.5788C324.875 25.969 324.292 25.5225 323.53 25.2393C322.778 24.9453 321.869 24.7983 320.802 24.7983H317.6V51H308.518ZM328.12 35.6449L336.483 51H326.617L318.449 35.6449H328.12ZM350.924 51.4574C348.201 51.4574 345.871 50.9183 343.932 49.8402C341.994 48.7512 340.507 47.2375 339.473 45.299C338.438 43.3497 337.921 41.09 337.921 38.5199C337.921 35.9498 338.438 33.6955 339.473 31.7571C340.507 29.8078 341.994 28.294 343.932 27.2159C345.871 26.1269 348.201 25.5824 350.924 25.5824C353.646 25.5824 355.977 26.1269 357.915 27.2159C359.854 28.294 361.34 29.8078 362.375 31.7571C363.409 33.6955 363.927 35.9498 363.927 38.5199C363.927 41.09 363.409 43.3497 362.375 45.299C361.34 47.2375 359.854 48.7512 357.915 49.8402C355.977 50.9183 353.646 51.4574 350.924 51.4574ZM350.989 44.7926C351.751 44.7926 352.41 44.5367 352.966 44.0249C353.521 43.513 353.951 42.7834 354.256 41.8359C354.561 40.8885 354.714 39.7614 354.714 38.4545C354.714 37.1368 354.561 36.0097 354.256 35.0732C353.951 34.1257 353.521 33.3961 352.966 32.8842C352.41 32.3724 351.751 32.1165 350.989 32.1165C350.183 32.1165 349.492 32.3724 348.915 32.8842C348.337 33.3961 347.896 34.1257 347.591 35.0732C347.287 36.0097 347.134 37.1368 347.134 38.4545C347.134 39.7614 347.287 40.8885 347.591 41.8359C347.896 42.7834 348.337 43.513 348.915 44.0249C349.492 44.5367 350.183 44.7926 350.989 44.7926ZM379.674 51.4574C376.951 51.4574 374.621 50.9183 372.682 49.8402C370.744 48.7512 369.257 47.2375 368.223 45.299C367.188 43.3497 366.671 41.09 366.671 38.5199C366.671 35.9498 367.188 33.6955 368.223 31.7571C369.257 29.8078 370.744 28.294 372.682 27.2159C374.621 26.1269 376.951 25.5824 379.674 25.5824C382.135 25.5824 384.264 26.0289 386.061 26.9219C387.869 27.804 389.268 29.0563 390.259 30.679C391.25 32.2907 391.751 34.1856 391.762 36.3636H383.398C383.278 35.0459 382.897 34.044 382.255 33.358C381.623 32.661 380.806 32.3125 379.805 32.3125C379.02 32.3125 378.334 32.5412 377.746 32.9986C377.158 33.4451 376.701 34.1257 376.374 35.0405C376.047 35.9444 375.884 37.0824 375.884 38.4545C375.884 39.8267 376.047 40.9702 376.374 41.8849C376.701 42.7888 377.158 43.4695 377.746 43.9268C378.334 44.3733 379.02 44.5966 379.805 44.5966C380.469 44.5966 381.057 44.4441 381.569 44.1392C382.081 43.8234 382.494 43.366 382.81 42.767C383.137 42.1572 383.333 41.4167 383.398 40.5455H391.762C391.729 42.7562 391.223 44.6837 390.243 46.3281C389.263 47.9616 387.874 49.2249 386.077 50.1179C384.291 51.0109 382.157 51.4574 379.674 51.4574ZM403.585 45.054L403.65 34.3381H404.826L410.903 25.9091H421.031L410.837 39.0426H408.289L403.585 45.054ZM395.482 51V17.5455H404.499V51H395.482ZM410.968 51L405.218 41.0682L411.099 34.6648L421.292 51H410.968ZM149.844 72V58.9091H153.398V64.0227H158.102V58.9091H161.656V72H158.102V66.8864H153.398V72H149.844ZM172.161 72.1534C171.534 72.1534 170.98 72.0511 170.499 71.8466C170.021 71.6378 169.646 71.3224 169.374 70.9006C169.101 70.4787 168.965 69.9418 168.965 69.2898C168.965 68.7528 169.056 68.2947 169.24 67.9155C169.423 67.532 169.678 67.2188 170.007 66.9759C170.335 66.733 170.716 66.5476 171.151 66.4197C171.59 66.2919 172.063 66.2088 172.57 66.1705C173.119 66.1278 173.561 66.0767 173.893 66.017C174.23 65.9531 174.472 65.8658 174.622 65.755C174.771 65.6399 174.845 65.4886 174.845 65.3011V65.2756C174.845 65.0199 174.747 64.8239 174.551 64.6875C174.355 64.5511 174.104 64.483 173.797 64.483C173.46 64.483 173.186 64.5575 172.972 64.7067C172.764 64.8516 172.638 65.0753 172.595 65.3778H169.348C169.391 64.7812 169.58 64.2315 169.917 63.7287C170.258 63.2216 170.754 62.8168 171.406 62.5142C172.058 62.2074 172.872 62.054 173.848 62.054C174.551 62.054 175.182 62.1371 175.74 62.3033C176.298 62.4652 176.774 62.6932 177.166 62.9872C177.558 63.277 177.856 63.6179 178.061 64.0099C178.269 64.3977 178.374 64.8196 178.374 65.2756V72H175.075V70.6193H174.999C174.803 70.9858 174.564 71.282 174.283 71.5078C174.006 71.7337 173.688 71.8977 173.33 72C172.977 72.1023 172.587 72.1534 172.161 72.1534ZM173.311 69.929C173.58 69.929 173.831 69.8736 174.066 69.7628C174.304 69.652 174.498 69.4922 174.647 69.2834C174.796 69.0746 174.871 68.821 174.871 68.5227V67.7045C174.777 67.7429 174.677 67.7791 174.57 67.8132C174.468 67.8473 174.357 67.8793 174.238 67.9091C174.123 67.9389 173.999 67.9666 173.867 67.9922C173.74 68.0178 173.605 68.0412 173.465 68.0625C173.192 68.1051 172.968 68.1754 172.793 68.2734C172.623 68.3672 172.495 68.4844 172.41 68.625C172.329 68.7614 172.289 68.9148 172.289 69.0852C172.289 69.358 172.384 69.5668 172.576 69.7116C172.768 69.8565 173.013 69.929 173.311 69.929ZM189.618 66.4773V72H186.09V62.1818H189.439V64.0483H189.541C189.754 63.4261 190.129 62.9382 190.666 62.5845C191.208 62.2308 191.838 62.054 192.558 62.054C193.253 62.054 193.856 62.2138 194.367 62.5334C194.883 62.8487 195.281 63.2834 195.563 63.8374C195.848 64.3913 195.989 65.0241 195.985 65.7358V72H192.456V66.4773C192.46 65.9915 192.337 65.6101 192.085 65.3331C191.838 65.0561 191.493 64.9176 191.05 64.9176C190.76 64.9176 190.507 64.9815 190.289 65.1094C190.076 65.233 189.912 65.4119 189.797 65.6463C189.682 65.8764 189.622 66.1534 189.618 66.4773ZM207.31 72.1278C206.611 72.1278 205.968 71.9446 205.38 71.5781C204.796 71.2116 204.327 70.6555 203.974 69.9098C203.624 69.1641 203.45 68.2244 203.45 67.0909C203.45 65.9062 203.633 64.9432 203.999 64.2017C204.37 63.4602 204.847 62.9169 205.431 62.5717C206.019 62.2266 206.637 62.054 207.285 62.054C207.771 62.054 208.197 62.1392 208.563 62.3097C208.93 62.4759 209.236 62.6996 209.484 62.9808C209.731 63.2578 209.918 63.5625 210.046 63.8949H210.097V58.9091H213.626V72H210.123V70.3892H210.046C209.91 70.7216 209.714 71.0199 209.458 71.2841C209.207 71.544 208.9 71.7507 208.538 71.9041C208.18 72.0533 207.771 72.1278 207.31 72.1278ZM208.614 69.4176C208.938 69.4176 209.215 69.3239 209.445 69.1364C209.68 68.9446 209.859 68.6761 209.982 68.331C210.11 67.9815 210.174 67.5682 210.174 67.0909C210.174 66.6051 210.11 66.1896 209.982 65.8445C209.859 65.495 209.68 65.2287 209.445 65.0455C209.215 64.858 208.938 64.7642 208.614 64.7642C208.29 64.7642 208.013 64.858 207.783 65.0455C207.558 65.2287 207.383 65.495 207.259 65.8445C207.14 66.1896 207.08 66.6051 207.08 67.0909C207.08 67.5767 207.14 67.9943 207.259 68.3438C207.383 68.6889 207.558 68.9553 207.783 69.1428C208.013 69.326 208.29 69.4176 208.614 69.4176ZM223.536 75.6818C223.131 75.6818 222.745 75.6499 222.379 75.5859C222.012 75.5263 221.69 75.4432 221.414 75.3366L222.181 72.831C222.47 72.9332 222.735 72.9993 222.973 73.0291C223.216 73.0589 223.423 73.0419 223.593 72.978C223.768 72.9141 223.894 72.7926 223.97 72.6136L224.047 72.4347L220.595 62.1818H224.277L225.862 68.983H225.965L227.575 62.1818H231.283L227.703 72.8182C227.524 73.3594 227.264 73.8452 226.923 74.2756C226.587 74.7102 226.144 75.0533 225.594 75.3047C225.044 75.5561 224.358 75.6818 223.536 75.6818ZM238.316 72V62.1818H241.666V64.0483H241.768C241.973 63.4347 242.322 62.9489 242.816 62.5909C243.311 62.233 243.899 62.054 244.581 62.054C245.271 62.054 245.865 62.2372 246.364 62.6037C246.863 62.9659 247.163 63.4474 247.265 64.0483H247.368C247.534 63.4474 247.887 62.9659 248.429 62.6037C248.97 62.2372 249.605 62.054 250.333 62.054C251.275 62.054 252.038 62.3565 252.622 62.9616C253.21 63.5668 253.504 64.3722 253.504 65.3778V72H249.975V66.2727C249.975 65.8423 249.867 65.5057 249.649 65.2628C249.432 65.0156 249.14 64.892 248.774 64.892C248.412 64.892 248.124 65.0156 247.911 65.2628C247.702 65.5057 247.598 65.8423 247.598 66.2727V72H244.223V66.2727C244.223 65.8423 244.114 65.5057 243.897 65.2628C243.679 65.0156 243.387 64.892 243.021 64.892C242.778 64.892 242.569 64.9474 242.394 65.0582C242.22 65.169 242.083 65.3288 241.985 65.5376C241.892 65.7422 241.845 65.9872 241.845 66.2727V72H238.316ZM264.01 72.1534C263.383 72.1534 262.83 72.0511 262.348 71.8466C261.871 71.6378 261.496 71.3224 261.223 70.9006C260.95 70.4787 260.814 69.9418 260.814 69.2898C260.814 68.7528 260.905 68.2947 261.089 67.9155C261.272 67.532 261.528 67.2188 261.856 66.9759C262.184 66.733 262.565 66.5476 263 66.4197C263.439 66.2919 263.912 66.2088 264.419 66.1705C264.969 66.1278 265.41 66.0767 265.742 66.017C266.079 65.9531 266.322 65.8658 266.471 65.755C266.62 65.6399 266.695 65.4886 266.695 65.3011V65.2756C266.695 65.0199 266.597 64.8239 266.401 64.6875C266.205 64.5511 265.953 64.483 265.646 64.483C265.31 64.483 265.035 64.5575 264.822 64.7067C264.613 64.8516 264.487 65.0753 264.445 65.3778H261.197C261.24 64.7812 261.43 64.2315 261.766 63.7287C262.107 63.2216 262.604 62.8168 263.256 62.5142C263.908 62.2074 264.722 62.054 265.697 62.054C266.401 62.054 267.031 62.1371 267.589 62.3033C268.148 62.4652 268.623 62.6932 269.015 62.9872C269.407 63.277 269.705 63.6179 269.91 64.0099C270.119 64.3977 270.223 64.8196 270.223 65.2756V72H266.925V70.6193H266.848C266.652 70.9858 266.413 71.282 266.132 71.5078C265.855 71.7337 265.538 71.8977 265.18 72C264.826 72.1023 264.436 72.1534 264.01 72.1534ZM265.16 69.929C265.429 69.929 265.68 69.8736 265.915 69.7628C266.153 69.652 266.347 69.4922 266.496 69.2834C266.646 69.0746 266.72 68.821 266.72 68.5227V67.7045C266.626 67.7429 266.526 67.7791 266.42 67.8132C266.317 67.8473 266.207 67.8793 266.087 67.9091C265.972 67.9389 265.849 67.9666 265.717 67.9922C265.589 68.0178 265.455 68.0412 265.314 68.0625C265.041 68.1051 264.817 68.1754 264.643 68.2734C264.472 68.3672 264.344 68.4844 264.259 68.625C264.178 68.7614 264.138 68.9148 264.138 69.0852C264.138 69.358 264.234 69.5668 264.425 69.7116C264.617 69.8565 264.862 69.929 265.16 69.929ZM281.467 66.4773V72H277.939V62.1818H281.288V64.0483H281.391C281.604 63.4261 281.979 62.9382 282.516 62.5845C283.057 62.2308 283.687 62.054 284.408 62.054C285.102 62.054 285.705 62.2138 286.217 62.5334C286.732 62.8487 287.131 63.2834 287.412 63.8374C287.697 64.3913 287.838 65.0241 287.834 65.7358V72H284.305V66.4773C284.31 65.9915 284.186 65.6101 283.935 65.3331C283.687 65.0561 283.342 64.9176 282.899 64.9176C282.609 64.9176 282.356 64.9815 282.138 65.1094C281.925 65.233 281.761 65.4119 281.646 65.6463C281.531 65.8764 281.472 66.1534 281.467 66.4773ZM314.196 65.3778H310.949C310.932 65.1776 310.861 65.005 310.738 64.8601C310.614 64.7152 310.454 64.6044 310.258 64.5277C310.067 64.4467 309.854 64.4062 309.619 64.4062C309.317 64.4062 309.057 64.4616 308.839 64.5724C308.622 64.6832 308.516 64.8409 308.52 65.0455C308.516 65.1903 308.577 65.3246 308.705 65.4482C308.837 65.5717 309.091 65.6676 309.466 65.7358L311.46 66.0938C312.466 66.277 313.214 66.5859 313.704 67.0206C314.198 67.451 314.447 68.0284 314.452 68.7528C314.447 69.4517 314.239 70.0589 313.825 70.5746C313.416 71.0859 312.856 71.4822 312.144 71.7635C311.437 72.0405 310.629 72.179 309.722 72.179C308.222 72.179 307.048 71.8722 306.2 71.2585C305.356 70.6449 304.885 69.8352 304.787 68.8295H308.29C308.337 69.1406 308.49 69.3814 308.75 69.5518C309.014 69.718 309.347 69.8011 309.747 69.8011C310.071 69.8011 310.337 69.7457 310.546 69.6349C310.759 69.5241 310.868 69.3665 310.872 69.1619C310.868 68.9744 310.774 68.8253 310.591 68.7145C310.412 68.6037 310.131 68.5142 309.747 68.446L308.008 68.1392C307.007 67.9645 306.257 67.6321 305.758 67.142C305.26 66.652 305.013 66.0213 305.017 65.25C305.013 64.5682 305.192 63.9908 305.554 63.5178C305.92 63.0405 306.442 62.6783 307.12 62.4311C307.802 62.1797 308.609 62.054 309.543 62.054C310.962 62.054 312.08 62.348 312.898 62.9361C313.721 63.5241 314.153 64.3381 314.196 65.3778ZM326.538 72.179C325.49 72.179 324.586 71.9787 323.828 71.5781C323.074 71.1733 322.492 70.5937 322.083 69.8395C321.678 69.081 321.476 68.1733 321.476 67.1165C321.476 66.1023 321.68 65.2159 322.089 64.4574C322.498 63.6989 323.076 63.1087 323.821 62.6868C324.567 62.2649 325.447 62.054 326.461 62.054C327.203 62.054 327.874 62.169 328.475 62.3991C329.076 62.6293 329.589 62.9638 330.015 63.4027C330.442 63.8374 330.77 64.3658 331 64.9879C331.23 65.6101 331.345 66.3111 331.345 67.0909V67.9091H322.575V65.9659H328.098C328.094 65.6847 328.021 65.4375 327.88 65.2244C327.744 65.0071 327.559 64.8388 327.324 64.7195C327.094 64.5959 326.832 64.5341 326.538 64.5341C326.253 64.5341 325.991 64.5959 325.752 64.7195C325.513 64.8388 325.321 65.005 325.177 65.218C325.036 65.4311 324.961 65.6804 324.953 65.9659V68.0625C324.953 68.3778 325.019 68.6591 325.151 68.9062C325.283 69.1534 325.473 69.3473 325.72 69.4879C325.967 69.6286 326.265 69.6989 326.615 69.6989C326.858 69.6989 327.079 69.6648 327.28 69.5966C327.484 69.5284 327.659 69.4304 327.804 69.3026C327.949 69.1705 328.055 69.0128 328.123 68.8295H331.345C331.234 69.5114 330.972 70.1037 330.559 70.6065C330.145 71.1051 329.598 71.4929 328.916 71.7699C328.238 72.0426 327.446 72.179 326.538 72.179ZM338.815 72V62.1818H342.241V64.0483H342.343C342.522 63.358 342.805 62.853 343.193 62.5334C343.585 62.2138 344.043 62.054 344.568 62.054C344.721 62.054 344.872 62.0668 345.021 62.0923C345.175 62.1136 345.322 62.1456 345.462 62.1882V65.1989C345.288 65.1392 345.073 65.0945 344.817 65.0646C344.561 65.0348 344.342 65.0199 344.158 65.0199C343.813 65.0199 343.502 65.0987 343.225 65.2564C342.953 65.4098 342.737 65.6271 342.58 65.9084C342.422 66.1854 342.343 66.5114 342.343 66.8864V72H338.815ZM362.843 62.1818L359.545 72H355.454L352.156 62.1818H355.863L357.448 68.6761H357.551L359.136 62.1818H362.843ZM369.877 72V62.1818H373.405V72H369.877ZM371.641 61.1591C371.164 61.1591 370.755 61.0014 370.414 60.6861C370.073 60.3707 369.902 59.9915 369.902 59.5483C369.902 59.1051 370.073 58.7259 370.414 58.4105C370.755 58.0952 371.164 57.9375 371.641 57.9375C372.122 57.9375 372.532 58.0952 372.868 58.4105C373.209 58.7259 373.38 59.1051 373.38 59.5483C373.38 59.9915 373.209 60.3707 372.868 60.6861C372.532 61.0014 372.122 61.1591 371.641 61.1591ZM385.963 72.179C384.898 72.179 383.986 71.968 383.227 71.5462C382.469 71.12 381.887 70.5277 381.482 69.7692C381.077 69.0064 380.875 68.1222 380.875 67.1165C380.875 66.1108 381.077 65.2287 381.482 64.4702C381.887 63.7074 382.469 63.1151 383.227 62.6932C383.986 62.267 384.898 62.054 385.963 62.054C386.926 62.054 387.759 62.2287 388.462 62.5781C389.17 62.9233 389.717 63.4134 390.105 64.0483C390.493 64.679 390.689 65.4205 390.693 66.2727H387.42C387.373 65.7571 387.224 65.3651 386.973 65.0966C386.726 64.8239 386.406 64.6875 386.014 64.6875C385.707 64.6875 385.439 64.777 385.209 64.956C384.979 65.1307 384.8 65.397 384.672 65.755C384.544 66.1087 384.48 66.554 384.48 67.0909C384.48 67.6278 384.544 68.0753 384.672 68.4332C384.8 68.7869 384.979 69.0533 385.209 69.2322C385.439 69.407 385.707 69.4943 386.014 69.4943C386.274 69.4943 386.504 69.4347 386.704 69.3153C386.905 69.1918 387.067 69.0128 387.19 68.7784C387.318 68.5398 387.395 68.25 387.42 67.9091H390.693C390.68 68.7741 390.482 69.5284 390.099 70.1719C389.715 70.8111 389.172 71.3054 388.469 71.6548C387.77 72.0043 386.935 72.179 385.963 72.179ZM402.883 72.179C401.835 72.179 400.932 71.9787 400.173 71.5781C399.419 71.1733 398.837 70.5937 398.428 69.8395C398.023 69.081 397.821 68.1733 397.821 67.1165C397.821 66.1023 398.025 65.2159 398.435 64.4574C398.844 63.6989 399.421 63.1087 400.167 62.6868C400.913 62.2649 401.793 62.054 402.807 62.054C403.548 62.054 404.219 62.169 404.82 62.3991C405.421 62.6293 405.935 62.9638 406.361 63.4027C406.787 63.8374 407.115 64.3658 407.345 64.9879C407.575 65.6101 407.69 66.3111 407.69 67.0909V67.9091H398.92V65.9659H404.443C404.439 65.6847 404.366 65.4375 404.226 65.2244C404.089 65.0071 403.904 64.8388 403.67 64.7195C403.44 64.5959 403.177 64.5341 402.883 64.5341C402.598 64.5341 402.336 64.5959 402.097 64.7195C401.859 64.8388 401.667 65.005 401.522 65.218C401.381 65.4311 401.307 65.6804 401.298 65.9659V68.0625C401.298 68.3778 401.364 68.6591 401.496 68.9062C401.628 69.1534 401.818 69.3473 402.065 69.4879C402.312 69.6286 402.611 69.6989 402.96 69.6989C403.203 69.6989 403.425 69.6648 403.625 69.5966C403.829 69.5284 404.004 69.4304 404.149 69.3026C404.294 69.1705 404.4 69.0128 404.469 68.8295H407.69C407.579 69.5114 407.317 70.1037 406.904 70.6065C406.491 71.1051 405.943 71.4929 405.261 71.7699C404.584 72.0426 403.791 72.179 402.883 72.179ZM424.134 65.3778H420.887C420.87 65.1776 420.8 65.005 420.676 64.8601C420.553 64.7152 420.393 64.6044 420.197 64.5277C420.005 64.4467 419.792 64.4062 419.558 64.4062C419.255 64.4062 418.995 64.4616 418.778 64.5724C418.561 64.6832 418.454 64.8409 418.458 65.0455C418.454 65.1903 418.516 65.3246 418.644 65.4482C418.776 65.5717 419.029 65.6676 419.404 65.7358L421.399 66.0938C422.404 66.277 423.152 66.5859 423.642 67.0206C424.137 67.451 424.386 68.0284 424.39 68.7528C424.386 69.4517 424.177 70.0589 423.764 70.5746C423.355 71.0859 422.794 71.4822 422.083 71.7635C421.375 72.0405 420.568 72.179 419.66 72.179C418.16 72.179 416.986 71.8722 416.138 71.2585C415.294 70.6449 414.823 69.8352 414.725 68.8295H418.228C418.275 69.1406 418.429 69.3814 418.688 69.5518C418.953 69.718 419.285 69.8011 419.686 69.8011C420.009 69.8011 420.276 69.7457 420.485 69.6349C420.698 69.5241 420.806 69.3665 420.811 69.1619C420.806 68.9744 420.713 68.8253 420.529 68.7145C420.35 68.6037 420.069 68.5142 419.686 68.446L417.947 68.1392C416.946 67.9645 416.196 67.6321 415.697 67.142C415.198 66.652 414.951 66.0213 414.956 65.25C414.951 64.5682 415.13 63.9908 415.492 63.5178C415.859 63.0405 416.381 62.6783 417.058 62.4311C417.74 62.1797 418.548 62.054 419.481 62.054C420.9 62.054 422.019 62.348 422.837 62.9361C423.659 63.5241 424.092 64.3381 424.134 65.3778Z" fill="white"/>
<g clip-path="url(#clip0_30_95)">
<path d="M127.217 12.2174L113.986 20.9273L110.783 16.1668L124.016 7.45463L122.229 4.80252L110.265 2.4311L100.099 9.11882L97.6927 20.9627L97.7977 21.1196L92.5928 24.4171C92.146 24.0281 91.6993 23.6465 91.2525 23.2722C91.6993 21.082 90.3947 18.6708 88.1385 17.6188C86.3515 16.7834 84.3767 16.9823 83.0007 18.0078C79.0385 16.0758 74.7833 14.7984 70.4041 14.2263C69.9884 13.2162 69.2834 12.3484 68.3757 11.7295C67.468 11.1107 66.3973 10.7679 65.2952 10.7432C62.8 10.6681 60.5908 12.1201 59.771 14.2263C55.3866 14.7989 51.1268 16.0786 47.1609 18.0144C45.7871 16.9934 43.8101 16.7989 42.0365 17.6321C39.7825 18.6841 38.4891 21.0887 38.9203 23.2766C38.4444 23.6634 37.9798 24.059 37.5219 24.4657L32.2254 21.113L33.1458 19.7427L30.2954 16.0165C33.6132 12.4563 37.8675 9.88042 42.5815 8.57735L44.4736 8.05356L40.1533 0L39.0364 0.179017C25.0034 2.4311 14.6764 9.01937 8.3367 19.7803L8.00386 20.3439L8.17587 20.9759C9.02473 24.0944 9.2012 26.1409 9.14982 27.4294L6.89141 25.942L0 36.2454L12.8602 44.7233L19.7516 34.4288L17.3815 32.8662C19.2423 31.8982 21.3734 31.6021 23.844 31.9645L24.8359 32.1082L25.7294 30.7821L29.7302 33.5182C26.1423 39.0193 23.7442 45.1957 22.6869 51.6586C21.3042 52.189 19.039 53.3781 18.7688 55.5395C18.4024 58.4723 22.0614 60.5233 23.2632 61.1996C25.4837 62.4438 27.1479 63.2903 28.3653 63.9069L29.4309 64.4528L19.0726 71.0101C17.0398 72.2942 15.6235 74.2103 15.1857 76.2657C15.0172 76.9837 14.996 77.7278 15.1234 78.454C15.2508 79.1803 15.5241 79.8738 15.9273 80.4936L17.3212 82.5667C17.7442 83.1722 18.2855 83.6878 18.9131 84.083C19.5408 84.4781 20.2422 84.7449 20.9758 84.8674C21.4222 84.9498 21.8754 84.9912 22.3295 84.9911C24.1404 84.9611 25.8996 84.3894 27.3758 83.3513L39.7758 74.8756C40.8136 75.5255 41.9117 76.0761 43.0551 76.5199C47.9092 78.4272 54.8945 79.3179 65.025 79.3179C75.1554 79.3179 82.1407 78.4338 86.9948 76.5199C88.134 76.0774 89.2283 75.529 90.2629 74.8822L102.652 83.3513C104.129 84.3899 105.889 84.9616 107.7 84.9911C108.154 84.9913 108.606 84.9499 109.052 84.8674C109.786 84.7441 110.489 84.4761 111.117 84.0794C111.745 83.6827 112.286 83.1653 112.709 82.5578L114.103 80.4848C114.504 79.8644 114.777 79.1708 114.904 78.4447C115.031 77.7187 115.01 76.9748 114.842 76.2569C114.395 74.2015 112.99 72.2787 110.959 71.0035L100.615 64.4462C100.936 64.2782 101.285 64.097 101.691 63.8937C102.906 63.277 104.573 62.4306 106.793 61.1863C107.995 60.51 111.654 58.459 111.286 55.5263C111.024 53.4223 108.873 52.2421 107.488 51.6918C106.43 45.1888 104.015 38.975 100.398 33.4453L104.303 30.7755L104.461 31.012L116.435 33.3922L126.601 26.7001L129.004 14.8562L127.217 12.2174ZM11.9734 40.3651L4.3828 35.3614L7.77824 30.2915L9.29726 31.2926L9.33523 31.3147C9.34471 31.3233 9.35522 31.3308 9.36651 31.3368L9.39331 31.3545L13.6108 34.1348C13.6577 34.168 13.7046 34.2011 13.7538 34.2298L15.3688 35.2951L11.9734 40.3651ZM14.4865 30.9412L12.0918 29.361C12.4715 27.7057 12.4894 25.0425 11.4038 20.7969C17.1671 11.3599 26.022 5.67772 38.4333 3.45216L39.8719 6.13299C34.9261 7.85023 30.6215 10.7941 27.0518 14.9026L26.2186 15.8596L29.2634 19.8599L23.2923 28.7311C19.9527 28.4438 16.9995 29.1864 14.4865 30.9412ZM86.7781 20.4433C87.732 20.8853 88.3418 21.9152 88.1184 22.7197C88.0872 22.7904 88.0358 22.9009 87.971 23.049C87.9576 23.0733 87.9464 23.0998 87.933 23.1286C87.9196 23.1573 87.933 23.1286 87.933 23.1286C87.9265 23.1445 87.919 23.16 87.9107 23.175C87.3991 24.28 86.2554 26.7111 84.8682 29.2969C84.4907 30.0019 84.0975 30.718 83.6932 31.4252C82.9419 32.764 82.1217 34.0637 81.236 35.3194C80.3424 36.5482 79.7438 37.1648 79.3707 37.472C79.3567 37.1409 79.3686 36.8091 79.4064 36.4797C79.4958 35.5957 79.7482 34.2298 80.3558 32.159C80.5569 31.4717 80.8026 30.7048 81.0863 29.8517C82.3931 25.9774 84.0484 22.1274 84.5242 21.04C84.5689 20.9362 84.6091 20.8456 84.647 20.7616L84.6627 20.7395C85.0536 20.2046 85.9605 20.0698 86.7781 20.4522V20.4433ZM65.1791 13.8727C66.3787 13.9147 67.4129 14.7413 67.5514 15.7712C67.5514 15.8883 67.5514 16.0254 67.5514 16.1734C67.5403 17.6122 67.4643 22.6888 67.0108 27.5863C66.4099 34.0575 65.5142 36.2698 65.0808 36.988C64.6541 36.2808 63.774 34.1149 63.1753 27.8471C62.7286 23.1175 62.6303 18.2354 62.6102 16.3547C62.6102 16.0762 62.6102 15.8773 62.6102 15.7712C62.771 14.6772 63.8991 13.8396 65.1791 13.8727ZM43.3768 20.4654C44.1899 20.0875 45.0879 20.2179 45.4855 20.7549C45.4952 20.7662 45.5041 20.778 45.5123 20.7903C45.5481 20.8699 45.5905 20.9627 45.633 21.0621C46.1088 22.1517 47.764 26.0017 49.0708 29.876C49.3702 30.76 49.6181 31.5534 49.8236 32.2629C50.4313 34.3426 50.6747 35.7018 50.7552 36.5725C50.787 36.8787 50.7967 37.1866 50.7842 37.4941C50.4246 37.198 49.846 36.6101 49.0105 35.4675C48.09 34.1763 47.2399 32.8373 46.4639 31.4562C46.0797 30.7821 45.7022 30.0992 45.347 29.4273C43.9285 26.7885 42.7602 24.311 42.242 23.2059L42.2241 23.1661C42.2129 23.1418 42.2018 23.1197 42.1928 23.0976L42.0342 22.7484C41.8243 21.9395 42.4252 20.9119 43.3768 20.4654ZM27.4763 28.1742L30.4674 23.7253L35.1585 26.7023C33.8621 28.0394 32.6512 29.4551 31.5329 30.9412L27.4763 28.1742ZM25.5663 80.7743C24.2975 81.6429 22.8031 82.0208 21.5633 81.7865C21.2434 81.7385 20.9363 81.6285 20.6595 81.4627C20.3828 81.297 20.1418 81.0788 19.9505 80.8207L18.5565 78.7477C18.2237 78.1952 18.1257 77.5348 18.284 76.9111C18.5409 75.6911 19.4746 74.48 20.7747 73.649L32.2344 66.3866C32.8464 67.0364 33.4451 67.905 34.3498 69.3039C35.1543 70.5859 36.1046 71.7724 37.1823 72.8401L25.5663 80.7743ZM109.244 73.6379C110.544 74.4579 111.478 75.6778 111.735 76.8978C111.815 77.2085 111.832 77.532 111.784 77.8493C111.737 78.1665 111.626 78.4712 111.458 78.7454L110.064 80.8185C109.872 81.0769 109.631 81.2952 109.354 81.4609C109.076 81.6267 108.769 81.7366 108.449 81.7843C107.211 82.0186 105.714 81.6407 104.443 80.7699L92.8475 72.8423C93.9286 71.7702 94.8812 70.5785 95.6867 69.2907C96.5802 67.8961 97.1878 67.0276 97.7932 66.38L109.244 73.6379ZM108.145 55.9152C108.145 55.9506 108.122 56.8413 105.241 58.4657C103.078 59.6768 101.513 60.4724 100.253 61.1178C99.1626 61.6725 98.3204 62.1079 97.61 62.5455C96.6611 63.1119 95.8185 63.8364 95.1193 64.6871C94.3685 65.6212 93.6741 66.5982 93.0396 67.6132C92.2595 68.8805 91.3004 70.0311 90.1914 71.03C89.3364 71.7719 88.3899 72.4039 87.3746 72.9108C83.4609 74.8999 76.9961 76.1928 65.0361 76.1928C53.0761 76.1928 46.5868 74.8999 42.6664 72.9042C41.6515 72.3968 40.7058 71.764 39.8518 71.0212C38.7464 70.0246 37.7903 68.877 37.0126 67.6132C36.3763 66.5944 35.6788 65.6144 34.9239 64.6782C34.226 63.8313 33.3857 63.1098 32.4399 62.5455C31.7317 62.1035 30.8918 61.6769 29.8039 61.1244C28.5463 60.4835 26.9804 59.6879 24.818 58.4723C21.8827 56.8236 21.914 55.9307 21.914 55.9219C21.9564 55.5771 22.7852 55.0069 23.7346 54.6201C25.1062 55.6434 28.6111 58.0679 34.0549 60.4945C34.3662 60.633 34.6864 60.773 35.0155 60.9145C36.119 61.3852 37.3275 61.8648 38.6366 62.3377C41.8458 63.4953 45.1332 64.4288 48.4744 65.1313C49.884 65.4297 51.3561 65.6971 52.884 65.9247C56.7094 66.4973 60.573 66.7839 64.4419 66.7822C68.6318 66.7823 72.8149 66.4512 76.9514 65.7921C78.4638 65.5534 79.9225 65.2772 81.3231 64.9744C84.6573 64.2548 87.9406 63.3209 91.152 62.1786C92.4677 61.7123 93.6874 61.2371 94.8021 60.773L95.4521 60.5012C101.164 58.0701 104.912 55.639 106.364 54.6356C107.296 55.0312 108.102 55.5793 108.145 55.9152ZM104.347 52.1912C102.891 53.1858 99.3346 55.4379 94.0716 57.6656C93.2786 58.0016 92.423 58.3485 91.5116 58.6955C90.3433 59.1375 89.079 59.5796 87.7253 60.0216C84.4351 61.0706 81.0766 61.8969 77.673 62.4947C76.1964 62.7555 74.6618 62.9809 73.0757 63.1577C70.2097 63.4848 67.327 63.6494 64.4419 63.6505C61.8836 63.651 59.3269 63.5212 56.7821 63.2616C55.1715 63.0958 53.6189 62.8836 52.129 62.6339C48.7048 62.0633 45.3278 61.2441 42.0253 60.1829C40.685 59.7409 39.4206 59.2989 38.2613 58.8569C37.256 58.4657 36.3223 58.0745 35.4645 57.6944C30.4562 55.4843 27.1434 53.23 25.7942 52.2399C26.7684 46.2078 28.993 40.4402 32.3282 35.2995C32.9001 34.4155 33.5032 33.5587 34.1376 32.7292C35.2887 31.2139 36.5433 29.7784 37.8927 28.4328C38.6373 27.6961 39.4095 26.9844 40.2092 26.2978C40.9039 27.7388 41.8645 29.666 42.9389 31.6308C43.1623 32.0529 43.408 32.4795 43.6493 32.9016C47.1721 39.0898 49.0105 40.3496 50.2056 40.7629C50.5153 40.873 50.8416 40.9305 51.1707 40.933C51.5762 40.9333 51.976 40.8379 52.3367 40.6546C53.132 40.2523 53.6368 39.5716 53.849 38.5439C54.0478 37.5892 53.9965 36.3339 53.6927 34.7249C53.356 33.0576 52.9158 31.4124 52.3747 29.7986C51.2153 26.2072 49.6941 22.5053 48.8988 20.6643C52.2375 19.077 55.7962 17.9895 59.4582 17.4376C59.5029 20.0234 59.6503 24.7662 60.1284 29.2041C60.4523 32.1988 60.8789 34.5879 61.3994 36.3007C61.7055 37.3107 62.6392 40.3827 65.0786 40.3827C67.5179 40.3827 68.4807 37.2334 68.7867 36.199C69.3095 34.431 69.7361 31.9999 70.0578 28.9345C70.5046 24.5585 70.6542 19.8731 70.6989 17.442C74.3595 17.9914 77.9169 19.0774 81.2538 20.6643C80.463 22.5031 78.9396 26.2006 77.7824 29.7876C77.2507 31.3766 76.8158 32.9959 76.4801 34.6365C76.3014 35.4994 76.2041 36.3769 76.1897 37.2577C76.186 37.6653 76.2219 38.0724 76.2969 38.4732C76.5002 39.5341 77.0095 40.2413 77.8204 40.6435C78.1813 40.8262 78.5811 40.9209 78.9865 40.9198C79.3147 40.918 79.6402 40.8612 79.9493 40.7518C81.1533 40.3385 82.9851 39.0699 86.5078 32.8883C86.767 32.4308 87.0238 31.9733 87.274 31.5159C88.3239 29.5909 89.2622 27.7101 89.9435 26.2934C90.7268 26.9609 91.4833 27.6585 92.2131 28.3864C93.5651 29.7291 94.822 31.1624 95.9749 32.6762C96.6093 33.5071 97.2132 34.3632 97.7865 35.2443C101.138 40.3845 103.375 46.1565 104.356 52.1957L104.347 52.1912ZM98.5795 30.886C97.4561 29.4009 96.24 27.9866 94.9384 26.6515L99.5535 23.7275L102.547 28.1764L98.5795 30.886ZM123.755 24.8193L115.771 30.0749L106.376 28.2074L101.057 20.3019L102.944 11.0195L110.926 5.74623L118.575 7.26677L106.394 15.2938L113.095 25.2701L125.276 17.2519L123.755 24.8193Z" fill="white"/>
</g>
<defs>
<clipPath id="clip0_30_95">
<rect width="129" height="85" fill="white"/>
</clipPath>
</defs>
</svg>
